<svg width="760" height="560" viewBox="0 0 760 560" fill="none" xmlns="http://www.w3.org/2000/svg" role="img" aria-label="Mapa ilustrado da escola">
  <rect width="760" height="560" rx="42" fill="#F6FAFF"/>
  <path d="M80 413C115 295 225 240 339 277C453 313 540 206 647 254C744 298 707 459 581 494C455 529 41 543 80 413Z" fill="#EB593E"/>
  <path d="M91 407C187 345 286 350 385 390C507 439 611 417 690 347" stroke="#7AC6BA" stroke-width="30" stroke-linecap="round"/>
  <path d="M121 154L294 84L467 154V419H121V154Z" fill="#215FC4"/>
  <path d="M294 84L467 154H121L294 84Z" fill="#01273E"/>
  <rect x="170" y="204" width="76" height="78" rx="16" fill="#FFDD00"/>
  <rect x="277" y="204" width="76" height="78" rx="16" fill="#FFA700"/>
  <rect x="384" y="204" width="50" height="215" rx="18" fill="#E95032"/>
  <rect x="177" y="328" width="166" height="91" rx="22" fill="white"/>
  <circle cx="584" cy="176" r="72" fill="#7AC6BA"/>
  <path d="M584 95V256" stroke="#004E4A" stroke-width="16" stroke-linecap="round"/>
  <path d="M525 153C545 169 566 177 584 177C603 177 626 164 646 145" stroke="#004E4A" stroke-width="16" stroke-linecap="round"/>
  <circle cx="614" cy="424" r="48" fill="#FFDD00"/>
  <circle cx="662" cy="392" r="24" fill="#FFA700"/>
  <circle cx="558" cy="390" r="22" fill="#E95032"/>
</svg>
